<svg xmlns="http://www.w3.org/2000/svg" xmlns:xlink="http://www.w3.org/1999/xlink" width="51.69mm" height="35.67mm" viewBox="0 0 146.54 101.12">
  <defs>
    <style>
      .a {
        fill: none;
      }

      .b {
        fill: #1d1d1b;
      }

      .c {
        clip-path: url(#a);
      }
    </style>
    <clipPath id="a">
      <rect class="a" x="17.01" y="17.01" width="112.52" height="69.37"/>
    </clipPath>
  </defs>
  <title>Zeichenfläche 1</title>
  <g>
    <polygon class="b" points="43.07 62.96 43.07 64.97 46.56 64.97 46.56 66.25 43.07 66.25 43.07 69.83 41.63 69.83 41.63 61.67 46.79 61.67 46.79 62.96 43.07 62.96"/>
    <polygon class="b" points="49.67 66.25 49.67 69.83 48.23 69.83 48.23 61.67 49.67 61.67 49.67 64.97 53.31 64.97 53.31 61.67 54.76 61.67 54.76 69.83 53.31 69.83 53.31 66.25 49.67 66.25"/>
    <g class="c">
      <path class="b" d="M63.08,63.77a2.7,2.7,0,0,0-2.11-1c-.95,0-1.5.47-1.5,1.09s.39.83,1.32,1l1,.21c1.52.35,2.63.84,2.63,2.33S63.16,70,61.12,70a4.31,4.31,0,0,1-3.55-1.67l1.2-.86a2.89,2.89,0,0,0,2.42,1.25c1.09,0,1.66-.45,1.66-1.1s-.56-.87-1.39-1.05l-1.09-.24C59,66,57.92,65.44,57.92,64s1.35-2.42,3.08-2.42a4.15,4.15,0,0,1,3.17,1.35Z"/>
      <path class="b" d="M69,67.8v-.69a5.15,5.15,0,0,1-.78.2l-.53.11c-.65.13-.94.3-.94.76s.31.78,1,.78A1.1,1.1,0,0,0,69,67.8m1.31.72c0,.36,0,.48.37.48h.07v.9a2.92,2.92,0,0,1-.65.06c-.53,0-.9-.14-1-.59h0a2.07,2.07,0,0,1-1.7.61,1.77,1.77,0,0,1-2-1.8,1.54,1.54,0,0,1,.32-1,2.76,2.76,0,0,1,1.69-.78l1.26-.22c.3-.06.36-.08.36-.3v-.09c0-.48-.31-.72-1-.72s-1.16.32-1.15,1L65.58,66c0-1.4,1.13-2,2.49-2s2.27.42,2.27,1.68Z"/>
    </g>
    <rect class="b" x="72.14" y="61.68" width="1.37" height="8.15"/>
    <polygon class="b" points="79.78 64.13 79.78 65.2 76.73 68.63 79.78 68.63 79.78 69.83 74.93 69.83 74.93 68.78 78.03 65.33 75.04 65.33 75.04 64.13 79.78 64.13"/>
    <g class="c">
      <path class="b" d="M84,68.79c.88,0,1.45-.68,1.45-1.81S84.9,65.15,84,65.15s-1.45.72-1.45,1.82.59,1.81,1.45,1.81m-1.39.44v.6H81.27V61.67h1.37v3.07A2.15,2.15,0,0,1,84.31,64c1.55,0,2.53,1.25,2.53,3s-1,3-2.53,3a2.07,2.07,0,0,1-1.68-.74"/>
      <path class="b" d="M88,64.12h1.37v3a2.89,2.89,0,0,0,.14,1.1.86.86,0,0,0,.88.5c.85,0,1.22-.66,1.22-1.58V64.12h1.37v5.71H91.57V69.1a1.93,1.93,0,0,1-1.7.88,1.82,1.82,0,0,1-1.4-.55c-.36-.41-.5-.8-.5-2.06Z"/>
      <path class="b" d="M95.89,64.12V65a1.69,1.69,0,0,1,1.67-1h.22v1.39l-.39,0a1.25,1.25,0,0,0-1.34.78,3.11,3.11,0,0,0-.16,1.13v2.57H94.52V64.12Z"/>
      <path class="b" d="M101.26,65.15c-.92,0-1.45.64-1.45,1.79s.53,1.76,1.45,1.76,1.45-.66,1.45-1.76-.54-1.79-1.45-1.79m-1.29,5c.06.53.3,1,1.28,1s1.4-.42,1.4-1.5v-.51h0a2,2,0,0,1-1.68.73c-1.55,0-2.52-1.13-2.52-2.87s.93-3,2.5-3a2.12,2.12,0,0,1,1.7.77v-.62H104V69.5a3.82,3.82,0,0,1-.18,1.37c-.36,1-1.23,1.33-2.64,1.33-1.71,0-2.57-.77-2.61-2Z"/>
      <path class="b" d="M90,30.15a4.55,4.55,0,0,0-3.43-1.75A12.88,12.88,0,0,0,85,24a7,7,0,0,0,3.49-4.69.71.71,0,0,0-.61-.8h0a18.11,18.11,0,0,0-9.15-.19A12.31,12.31,0,0,0,72.85,17h0a12.33,12.33,0,0,0-5.87,1.36,18.1,18.1,0,0,0-9.15.19h0a.71.71,0,0,0-.6.8A7,7,0,0,0,60.66,24,12.76,12.76,0,0,0,59,28.4a4.55,4.55,0,0,0-3.44,1.75,7,7,0,0,0-1.2,4.24c0,7.67,7.39,18.94,17.7,19.45l.53,0H73l.52,0c10.31-.5,17.7-11.78,17.7-19.45A7,7,0,0,0,90,30.15M84.2,22.87a13,13,0,0,0-.89-1,33.84,33.84,0,0,0,3.2-1.2,6.22,6.22,0,0,1-2.31,2.24M65.29,19.51c.95.14,1.55.3,1.57.31a.71.71,0,0,0,.57-.09,10.42,10.42,0,0,1,5.38-1.29h0a10.6,10.6,0,0,1,5.38,1.29.7.7,0,0,0,.57.09s.62-.16,1.57-.31a17.44,17.44,0,0,1,5.27,0,35.16,35.16,0,0,1-3.52,1.25l-1.62.47-.09,0c-3.31.94-6,1.75-7.56,4.76h0c-1.55-3-4.26-3.82-7.57-4.76l-.09,0-1.62-.47A35.64,35.64,0,0,1,60,19.47a17.57,17.57,0,0,1,5.27,0m-6.15,1.12a33.23,33.23,0,0,0,3.21,1.2,13.18,13.18,0,0,0-.89,1,6.2,6.2,0,0,1-2.32-2.24M63.9,22.3l.89.25c3.69,1.06,6.15,1.77,7.3,5.34h0a6.7,6.7,0,0,0-2.18,1.95l-.1.12a3.79,3.79,0,1,0-3.78,4h0c2.22,0,3.72-1.76,4.92-3.15.65-.75,1.38-1.6,1.83-1.6h0c.45,0,1.19.85,1.84,1.6,1.2,1.4,2.69,3.13,4.9,3.15h.06a3.79,3.79,0,1,0-3.78-4l-.1-.12a6.69,6.69,0,0,0-2.18-1.95c1.15-3.57,3.61-4.28,7.31-5.34l.89-.25a11.42,11.42,0,0,1,3.64,7.76.52.52,0,0,0,0,.08,6,6,0,0,1-5.94,6,6.76,6.76,0,0,1-3.79-1,.71.71,0,0,0-.1-.41l-2.12-3.49a.7.7,0,0,0-1.2,0l-2.14,3.49a.72.72,0,0,0-.1.41,6.75,6.75,0,0,1-3.79,1,6,6,0,0,1-5.95-6s0-.05,0-.08A11.41,11.41,0,0,1,63.9,22.3m4.51,7.83A2.38,2.38,0,0,1,66,32.51h0a2.38,2.38,0,1,1,2.38-2.38m8.85,0a2.38,2.38,0,1,1,2.38,2.38h0a2.38,2.38,0,0,1-2.37-2.38m-3.07,5-.16.45-1.19,3.34-1.2-3.34-.16-.45,1.07-1.74.29-.47.28.46Zm-18.37-.75A5.57,5.57,0,0,1,56.72,31a3.07,3.07,0,0,1,2.14-1.17c0,.32,0,.65,0,1,0,6.81,1.65,13.93,5.15,18.42-5-3.78-8.15-10.16-8.15-14.85m4.6.3a7.33,7.33,0,0,0,4.42,2.73c.11,2.21.85,10.34,3.83,14.34-4.8-2.58-7.56-9.86-8.24-17.07M72.82,52.43c-4.86,0-6.39-10.12-6.63-14.88h0a8.27,8.27,0,0,0,4.27-1.1l1.69,4.35c.1.28.37.94.66.94s.56-.66.67-.94l1.67-4.34a8.28,8.28,0,0,0,4.27,1.1h0c-.24,4.76-1.77,14.88-6.63,14.88M77,51.76c3-4,3.72-12.13,3.83-14.34a7.35,7.35,0,0,0,4.42-2.73C84.56,41.9,81.79,49.18,77,51.76m4.69-2.52c3.49-4.49,5.15-11.61,5.15-18.42,0-.33,0-.65,0-1A3.07,3.07,0,0,1,88.93,31a5.56,5.56,0,0,1,.91,3.38c0,4.69-3.19,11.06-8.16,14.85"/>
      <path class="b" d="M64.4,30.16A1.63,1.63,0,1,0,66,28.53a1.63,1.63,0,0,0-1.63,1.63m2.67-.29a.8.8,0,1,1-.8-.8.81.81,0,0,1,.8.8"/>
      <path class="b" d="M78,30.16a1.63,1.63,0,1,0,1.63-1.63A1.63,1.63,0,0,0,78,30.16m2.67-.29a.8.8,0,1,1-.8-.8.8.8,0,0,1,.8.8"/>
      <path class="b" d="M129.53,78.29h-1l-1.16,3.38c-.18.5-.35,1.07-.35,1.07h0s-.16-.52-.31-1l-1.12-3.46h-1.06l2,5.74-.25.73a1.39,1.39,0,0,1-.31.58.94.94,0,0,1-.72.23,4.34,4.34,0,0,1-.65-.06v.8a3.71,3.71,0,0,0,.72.07A1.58,1.58,0,0,0,127,85.17Zm-7,2.81c0,1.42-.77,2-1.78,2s-1.66-.79-1.66-2.06S119.8,79,120.82,79s1.75.68,1.75,2.12m-4.27,3.28a2.17,2.17,0,0,0,2.5,2c1.26,0,2.05-.31,2.42-1.17a3.94,3.94,0,0,0,.25-1.57V78.29h-1v.84a2.1,2.1,0,0,0-1.82-1c-1.45,0-2.53,1.14-2.53,2.94s1,2.9,2.53,2.9a2,2,0,0,0,1.84-1s0,.36,0,.58c0,1.33-.29,2-1.67,2a1.43,1.43,0,0,1-1.57-1.33Zm-5.62-3.23c0-1.37.67-2.18,1.7-2.18s1.71.8,1.71,2.18-.7,2.16-1.71,2.16-1.7-.79-1.7-2.16m-1,0a2.73,2.73,0,1,0,5.45,0,2.74,2.74,0,1,0-5.45,0m-1.39-5.33h-1V84h1Zm-6.82,5.32c0-1.37.67-2.18,1.7-2.18s1.71.8,1.71,2.18-.7,2.16-1.71,2.16-1.7-.79-1.7-2.16m-1,0a2.73,2.73,0,1,0,5.45,0,2.74,2.74,0,1,0-5.45,0m-1.33-.74a2.77,2.77,0,0,0-.36-1.54,1.79,1.79,0,0,0-1.61-.73,2,2,0,0,0-1.84,1v-.85h-1V84h1V80.7A1.53,1.53,0,0,1,98.81,79c.84,0,1.3.41,1.3,1.64V84h1Zm-6.46,0a2.77,2.77,0,0,0-.36-1.54,1.79,1.79,0,0,0-1.61-.73,2,2,0,0,0-1.84,1v-3.3h-1V84h1V80.7A1.53,1.53,0,0,1,92.35,79c.84,0,1.3.41,1.3,1.64V84h1Zm-6.73,1.86a1.67,1.67,0,0,1-1.66,1c-1,0-1.69-.79-1.69-2.16S85.24,79,86.26,79a1.56,1.56,0,0,1,1.56,1.15l.83-.43a2.39,2.39,0,0,0-2.39-1.55,2.71,2.71,0,0,0-2.71,3c0,1.82,1,3,2.71,3a2.56,2.56,0,0,0,2.44-1.46ZM80,79c.9,0,1.45.61,1.54,1.62H78.3A1.68,1.68,0,0,1,80,79m1.81,3.35a1.94,1.94,0,0,1-1.7,1,1.78,1.78,0,0,1-1.81-1.91h4.27v-.22c0-1.7-.85-3-2.57-3a2.73,2.73,0,0,0-2.71,3c0,1.91,1.09,3,2.72,3a2.91,2.91,0,0,0,2.52-1.32ZM71.67,76.79h2.51V84h1.06V76.79h2.51v-.95H71.67Zm-1,5.35c0,.89-.7,1.24-1.42,1.24s-1.21-.35-1.21-1a.71.71,0,0,1,.3-.62,3.12,3.12,0,0,1,1.12-.37l.55-.12a3.67,3.67,0,0,0,.66-.17Zm1.58,1.25h-.13c-.35,0-.49-.12-.49-.52V80c0-1.43-.85-1.8-2.12-1.8s-2.38.62-2.35,1.91l1,.11c0-.68.31-1.21,1.35-1.21s1.21.43,1.21,1v.12c0,.24-.12.29-.48.35l-.78.13a5.14,5.14,0,0,0-1.67.49A1.45,1.45,0,0,0,67,82.43,1.71,1.71,0,0,0,69,84.16a1.94,1.94,0,0,0,1.76-.79h0c0,.47.26.77,1,.77a3,3,0,0,0,.56,0Zm-6.6-7.55h-1v1.27h1Zm0,2.45h-1V84h1Zm-3.79,2.84c0,1.45-.78,2.17-1.78,2.17s-1.66-.8-1.66-2.17S59.13,79,60.13,79s1.75.72,1.75,2.16m-2,3a2.06,2.06,0,0,0,1.87-1V84h1V75.84h-1v3.29a2,2,0,0,0-1.84-1c-1.43,0-2.52,1.08-2.52,3s1,3,2.48,3M53.86,79c.9,0,1.45.61,1.54,1.62h-3.2A1.68,1.68,0,0,1,53.86,79m1.81,3.35a1.94,1.94,0,0,1-1.7,1,1.78,1.78,0,0,1-1.81-1.91h4.27v-.22c0-1.7-.85-3-2.57-3a2.73,2.73,0,0,0-2.71,3c0,1.91,1.09,3,2.72,3a2.91,2.91,0,0,0,2.52-1.32ZM46.38,84l1.79-5.67c.16-.47.38-1.38.38-1.38h0V84h1V75.84H48.05l-1.79,5.53c-.18.56-.31,1.07-.36,1.26-.06-.17-.22-.7-.41-1.25l-1.86-5.54H42.12V84h1V78.77c0-.72,0-1.7,0-1.7h0s.24.9.4,1.36L45.39,84Zm-6.14-8.16h-1v1.27h1Zm0,2.45h-1V84h1ZM34.82,79h1.1V83a1.66,1.66,0,0,0,.07.55c.18.48.65.6,1.19.6a4.12,4.12,0,0,0,1-.12v-.78a3.58,3.58,0,0,1-.66.07c-.31,0-.44-.06-.51-.19a1.06,1.06,0,0,1-.09-.54V79h1.26v-.76H36.91V76l-1,.22v2.06h-1.1Zm-.95-3.2h-1V84h1Zm-7.5,5.7c0,1.25.13,1.65.49,2.06a1.86,1.86,0,0,0,1.43.54,1.94,1.94,0,0,0,1.82-1V84h1V78.29h-1v3.28a1.51,1.51,0,0,1-1.45,1.7,1.09,1.09,0,0,1-1.1-.54,2.52,2.52,0,0,1-.19-1.15V78.29h-1ZM21.27,84l1.79-5.67c.16-.47.39-1.38.39-1.38h0V84h1V75.84H22.94l-1.79,5.53c-.18.56-.31,1.07-.36,1.26-.06-.17-.22-.7-.41-1.25l-1.86-5.54H17V84h1V78.77c0-.72,0-1.7,0-1.7h0s.24.9.4,1.36L20.27,84Z"/>
    </g>
  </g>
</svg>
